<mxfile host="65bd71144e">
    <diagram id="muOLUEOF97frmN8d_hko" name="Pagina-1">
        <mxGraphModel dx="554" dy="256" grid="1" gridSize="10" guides="1" tooltips="1" connect="1" arrows="1" fold="1" page="1" pageScale="1" pageWidth="827" pageHeight="1169" math="0" shadow="0">
            <root>
                <mxCell id="0"/>
                <mxCell id="1" parent="0"/>
                <mxCell id="2" value="&lt;p style=&quot;margin: 4px 0px 0px; text-align: center; font-size: 30px;&quot;&gt;&lt;b style=&quot;&quot;&gt;&lt;font style=&quot;font-size: 30px;&quot;&gt;encapsulator&lt;/font&gt;&lt;/b&gt;&lt;/p&gt;&lt;hr style=&quot;font-size: 30px;&quot; size=&quot;1&quot;&gt;&lt;div style=&quot;height: 2px; font-size: 30px;&quot;&gt;&lt;/div&gt;" style="verticalAlign=top;align=left;overflow=fill;fontSize=12;fontFamily=Courier New;html=1;fillColor=#F5F5F5;" parent="1" vertex="1">
                    <mxGeometry x="272" y="120" width="360" height="240" as="geometry"/>
                </mxCell>
                <mxCell id="4" value="encapsulation logic" style="rounded=0;whiteSpace=wrap;html=1;fillColor=#B1DDF0;fontFamily=Courier New;fontSize=20;points=[[0,0,0,0,0],[0,0.1,0,0,0],[0,0.2,0,0,0],[0,0.3,0,0,0],[0,0.4,0,0,0],[0,0.5,0,0,0],[0,0.6,0,0,0],[0,0.7,0,0,0],[0,0.8,0,0,0],[0,0.9,0,0,0],[0,1,0,0,0],[0.25,0,0,0,0],[0.25,1,0,0,0],[0.5,0,0,0,0],[0.5,1,0,0,0],[0.75,0,0,0,0],[0.75,1,0,0,0],[1,0,0,0,0],[1,0.2,0,0,0],[1,0.4,0,0,0],[1,0.6,0,0,0],[1,0.8,0,0,0],[1,1,0,0,0]];" parent="1" vertex="1">
                    <mxGeometry x="352" y="187" width="200" height="135" as="geometry"/>
                </mxCell>
                <mxCell id="77" style="edgeStyle=orthogonalEdgeStyle;rounded=0;html=1;endArrow=none;endFill=0;entryX=0;entryY=0.1;entryDx=0;entryDy=0;entryPerimeter=0;" parent="1" source="13" target="4" edge="1">
                    <mxGeometry relative="1" as="geometry">
                        <mxPoint x="352" y="200" as="targetPoint"/>
                        <Array as="points">
                            <mxPoint x="317" y="200"/>
                        </Array>
                    </mxGeometry>
                </mxCell>
                <mxCell id="13" value="" style="shape=display;whiteSpace=wrap;html=1;fontFamily=Courier New;fontSize=30;fillColor=default;" parent="1" vertex="1">
                    <mxGeometry x="262" y="195" width="20" height="10" as="geometry"/>
                </mxCell>
                <mxCell id="71" style="edgeStyle=orthogonalEdgeStyle;html=1;entryX=-0.001;entryY=0.296;entryDx=0;entryDy=0;entryPerimeter=0;rounded=0;endArrow=none;endFill=0;" parent="1" source="15" target="4" edge="1">
                    <mxGeometry relative="1" as="geometry">
                        <Array as="points"/>
                    </mxGeometry>
                </mxCell>
                <mxCell id="15" value="" style="shape=display;whiteSpace=wrap;html=1;fontFamily=Courier New;fontSize=30;fillColor=default;" parent="1" vertex="1">
                    <mxGeometry x="262" y="222" width="20" height="10" as="geometry"/>
                </mxCell>
                <mxCell id="76" style="edgeStyle=orthogonalEdgeStyle;html=1;entryX=0;entryY=0.4;entryDx=0;entryDy=0;entryPerimeter=0;rounded=0;endArrow=none;endFill=0;" parent="1" source="19" target="4" edge="1">
                    <mxGeometry relative="1" as="geometry">
                        <Array as="points">
                            <mxPoint x="352" y="245"/>
                        </Array>
                    </mxGeometry>
                </mxCell>
                <mxCell id="19" value="" style="shape=display;whiteSpace=wrap;html=1;fontFamily=Courier New;fontSize=30;fillColor=default;" parent="1" vertex="1">
                    <mxGeometry x="262" y="240.07" width="20" height="10" as="geometry"/>
                </mxCell>
                <mxCell id="73" style="edgeStyle=orthogonalEdgeStyle;html=1;exitX=1;exitY=0.5;exitDx=0;exitDy=0;exitPerimeter=0;entryX=0;entryY=0.6;entryDx=0;entryDy=0;entryPerimeter=0;rounded=0;endArrow=none;endFill=0;" parent="1" source="21" target="4" edge="1">
                    <mxGeometry relative="1" as="geometry"/>
                </mxCell>
                <mxCell id="21" value="" style="shape=display;whiteSpace=wrap;html=1;fontFamily=Courier New;fontSize=30;fillColor=default;" parent="1" vertex="1">
                    <mxGeometry x="262" y="263.07" width="20" height="10" as="geometry"/>
                </mxCell>
                <mxCell id="22" value="" style="endArrow=none;html=1;fontFamily=Courier New;fontSize=30;entryX=0;entryY=0.5;entryDx=0;entryDy=0;entryPerimeter=0;" parent="1" target="13" edge="1">
                    <mxGeometry width="50" height="50" relative="1" as="geometry">
                        <mxPoint x="132" y="200" as="sourcePoint"/>
                        <mxPoint x="232" y="185" as="targetPoint"/>
                    </mxGeometry>
                </mxCell>
                <mxCell id="23" value="&lt;font style=&quot;font-size: 10px;&quot;&gt;valid_i&lt;/font&gt;" style="edgeLabel;html=1;align=center;verticalAlign=middle;resizable=0;points=[];fontSize=10;fontFamily=Courier New;labelBackgroundColor=none;" parent="22" vertex="1" connectable="0">
                    <mxGeometry x="0.3817" relative="1" as="geometry">
                        <mxPoint x="-15" y="-8" as="offset"/>
                    </mxGeometry>
                </mxCell>
                <mxCell id="24" value="" style="endArrow=none;html=1;fontFamily=Courier New;fontSize=30;entryX=0;entryY=0.5;entryDx=0;entryDy=0;entryPerimeter=0;" parent="1" edge="1">
                    <mxGeometry width="50" height="50" relative="1" as="geometry">
                        <mxPoint x="132" y="227" as="sourcePoint"/>
                        <mxPoint x="262" y="226.7399999999999" as="targetPoint"/>
                    </mxGeometry>
                </mxCell>
                <mxCell id="25" value="packet_length_i" style="edgeLabel;html=1;align=center;verticalAlign=middle;resizable=0;points=[];fontSize=10;fontFamily=Courier New;labelBackgroundColor=none;" parent="24" vertex="1" connectable="0">
                    <mxGeometry x="-0.3938" y="1" relative="1" as="geometry">
                        <mxPoint x="27" y="-7" as="offset"/>
                    </mxGeometry>
                </mxCell>
                <mxCell id="28" value="" style="endArrow=none;html=1;fontFamily=Courier New;fontSize=30;entryX=0;entryY=0.5;entryDx=0;entryDy=0;entryPerimeter=0;" parent="1" edge="1">
                    <mxGeometry width="50" height="50" relative="1" as="geometry">
                        <mxPoint x="133" y="245.07" as="sourcePoint"/>
                        <mxPoint x="262" y="244.81" as="targetPoint"/>
                    </mxGeometry>
                </mxCell>
                <mxCell id="29" value="timestamp_present_i" style="edgeLabel;html=1;align=center;verticalAlign=middle;resizable=0;points=[];fontSize=10;fontFamily=Courier New;labelBackgroundColor=none;" parent="28" vertex="1" connectable="0">
                    <mxGeometry x="-0.4595" y="1" relative="1" as="geometry">
                        <mxPoint x="31" y="-6" as="offset"/>
                    </mxGeometry>
                </mxCell>
                <mxCell id="30" value="" style="endArrow=none;html=1;fontFamily=Courier New;fontSize=30;entryX=0;entryY=0.5;entryDx=0;entryDy=0;entryPerimeter=0;" parent="1" edge="1">
                    <mxGeometry width="50" height="50" relative="1" as="geometry">
                        <mxPoint x="132" y="268.07" as="sourcePoint"/>
                        <mxPoint x="262" y="267.81" as="targetPoint"/>
                    </mxGeometry>
                </mxCell>
                <mxCell id="31" value="timestamp_i" style="edgeLabel;html=1;align=center;verticalAlign=middle;resizable=0;points=[];fontSize=10;fontFamily=Courier New;labelBackgroundColor=none;" parent="30" vertex="1" connectable="0">
                    <mxGeometry x="-0.2622" y="1" relative="1" as="geometry">
                        <mxPoint x="17" y="-7" as="offset"/>
                    </mxGeometry>
                </mxCell>
                <mxCell id="32" style="edgeStyle=orthogonalEdgeStyle;rounded=0;html=1;entryX=1;entryY=0.2;entryDx=0;entryDy=0;entryPerimeter=0;strokeWidth=1;fontFamily=Courier New;fontSize=10;endArrow=none;endFill=0;" parent="1" source="33" target="4" edge="1">
                    <mxGeometry relative="1" as="geometry">
                        <mxPoint x="602" y="204.91999999999996" as="targetPoint"/>
                    </mxGeometry>
                </mxCell>
                <mxCell id="33" value="" style="shape=display;whiteSpace=wrap;html=1;fontFamily=Courier New;fontSize=30;fillColor=default;rotation=-180;" parent="1" vertex="1">
                    <mxGeometry x="622" y="209.22" width="20" height="10" as="geometry"/>
                </mxCell>
                <mxCell id="34" style="edgeStyle=orthogonalEdgeStyle;rounded=0;html=1;exitX=1;exitY=0.5;exitDx=0;exitDy=0;exitPerimeter=0;entryX=1;entryY=0.4;entryDx=0;entryDy=0;entryPerimeter=0;strokeWidth=1;fontFamily=Courier New;fontSize=10;endArrow=none;endFill=0;" parent="1" source="35" target="4" edge="1">
                    <mxGeometry relative="1" as="geometry">
                        <mxPoint x="602" y="225.08000000000004" as="targetPoint"/>
                    </mxGeometry>
                </mxCell>
                <mxCell id="35" value="" style="shape=display;whiteSpace=wrap;html=1;fontFamily=Courier New;fontSize=30;fillColor=default;rotation=-180;" parent="1" vertex="1">
                    <mxGeometry x="622" y="236.22" width="20" height="10" as="geometry"/>
                </mxCell>
                <mxCell id="42" value="" style="endArrow=none;html=1;fontFamily=Courier New;fontSize=30;entryX=0;entryY=0.5;entryDx=0;entryDy=0;entryPerimeter=0;" parent="1" target="33" edge="1">
                    <mxGeometry width="50" height="50" relative="1" as="geometry">
                        <mxPoint x="770" y="214" as="sourcePoint"/>
                        <mxPoint x="592" y="199.22" as="targetPoint"/>
                    </mxGeometry>
                </mxCell>
                <mxCell id="43" value="&lt;font style=&quot;font-size: 10px;&quot;&gt;valid_o&lt;/font&gt;" style="edgeLabel;html=1;align=center;verticalAlign=middle;resizable=0;points=[];fontSize=10;fontFamily=Courier New;labelBackgroundColor=none;" parent="42" vertex="1" connectable="0">
                    <mxGeometry x="0.3817" relative="1" as="geometry">
                        <mxPoint x="19" y="-8" as="offset"/>
                    </mxGeometry>
                </mxCell>
                <mxCell id="44" value="" style="endArrow=none;html=1;fontFamily=Courier New;fontSize=30;entryX=0;entryY=0.5;entryDx=0;entryDy=0;entryPerimeter=0;" parent="1" target="35" edge="1">
                    <mxGeometry width="50" height="50" relative="1" as="geometry">
                        <mxPoint x="770" y="241" as="sourcePoint"/>
                        <mxPoint x="622" y="240.96" as="targetPoint"/>
                    </mxGeometry>
                </mxCell>
                <mxCell id="45" value="encap_fifo_entry_o" style="edgeLabel;html=1;align=center;verticalAlign=middle;resizable=0;points=[];fontSize=10;fontFamily=Courier New;labelBackgroundColor=none;" parent="44" vertex="1" connectable="0">
                    <mxGeometry x="-0.3938" y="1" relative="1" as="geometry">
                        <mxPoint x="-23" y="-9" as="offset"/>
                    </mxGeometry>
                </mxCell>
                <mxCell id="52" value="" style="endArrow=none;html=1;rounded=0;fontFamily=Courier New;fontSize=10;strokeWidth=2;" parent="1" edge="1">
                    <mxGeometry width="50" height="50" relative="1" as="geometry">
                        <mxPoint x="125" y="291" as="sourcePoint"/>
                        <mxPoint x="125" y="195" as="targetPoint"/>
                    </mxGeometry>
                </mxCell>
                <mxCell id="53" value="from TE" style="edgeLabel;html=1;align=center;verticalAlign=middle;resizable=0;points=[];fontSize=10;fontFamily=Courier New;" parent="52" vertex="1" connectable="0">
                    <mxGeometry x="-0.219" y="1" relative="1" as="geometry">
                        <mxPoint x="-26" y="-10" as="offset"/>
                    </mxGeometry>
                </mxCell>
                <mxCell id="54" value="" style="endArrow=none;html=1;rounded=0;fontFamily=Courier New;fontSize=10;strokeWidth=2;" parent="1" edge="1">
                    <mxGeometry width="50" height="50" relative="1" as="geometry">
                        <mxPoint x="781" y="250" as="sourcePoint"/>
                        <mxPoint x="781" y="205" as="targetPoint"/>
                    </mxGeometry>
                </mxCell>
                <mxCell id="55" value="to fifo" style="edgeLabel;html=1;align=center;verticalAlign=middle;resizable=0;points=[];fontSize=10;fontFamily=Courier New;" parent="54" vertex="1" connectable="0">
                    <mxGeometry x="-0.219" y="1" relative="1" as="geometry">
                        <mxPoint x="27" y="-5" as="offset"/>
                    </mxGeometry>
                </mxCell>
                <mxCell id="62" value="" style="endArrow=none;html=1;fontFamily=Courier New;fontSize=30;entryX=0;entryY=0.5;entryDx=0;entryDy=0;entryPerimeter=0;" parent="1" edge="1">
                    <mxGeometry width="50" height="50" relative="1" as="geometry">
                        <mxPoint x="132" y="285.07" as="sourcePoint"/>
                        <mxPoint x="262" y="284.81" as="targetPoint"/>
                    </mxGeometry>
                </mxCell>
                <mxCell id="63" value="trace_payload_i" style="edgeLabel;html=1;align=center;verticalAlign=middle;resizable=0;points=[];fontSize=10;fontFamily=Courier New;labelBackgroundColor=none;" parent="62" vertex="1" connectable="0">
                    <mxGeometry x="-0.2622" y="1" relative="1" as="geometry">
                        <mxPoint x="17" y="-7" as="offset"/>
                    </mxGeometry>
                </mxCell>
                <mxCell id="74" style="edgeStyle=orthogonalEdgeStyle;html=1;exitX=1;exitY=0.5;exitDx=0;exitDy=0;exitPerimeter=0;entryX=0;entryY=0.7;entryDx=0;entryDy=0;entryPerimeter=0;rounded=0;endArrow=none;endFill=0;" parent="1" source="64" target="4" edge="1">
                    <mxGeometry relative="1" as="geometry">
                        <Array as="points">
                            <mxPoint x="352" y="285"/>
                        </Array>
                    </mxGeometry>
                </mxCell>
                <mxCell id="64" value="" style="shape=display;whiteSpace=wrap;html=1;fontFamily=Courier New;fontSize=30;fillColor=default;" parent="1" vertex="1">
                    <mxGeometry x="262" y="280.07" width="20" height="10" as="geometry"/>
                </mxCell>
                <mxCell id="65" value="" style="endArrow=none;html=1;fontFamily=Courier New;fontSize=30;entryX=0;entryY=0.5;entryDx=0;entryDy=0;entryPerimeter=0;" parent="1" edge="1">
                    <mxGeometry width="50" height="50" relative="1" as="geometry">
                        <mxPoint x="132" y="308.13" as="sourcePoint"/>
                        <mxPoint x="262" y="307.9599999999999" as="targetPoint"/>
                    </mxGeometry>
                </mxCell>
                <mxCell id="66" value="flow_i" style="edgeLabel;html=1;align=center;verticalAlign=middle;resizable=0;points=[];fontSize=10;fontFamily=Courier New;labelBackgroundColor=none;" parent="65" vertex="1" connectable="0">
                    <mxGeometry x="-0.3411" y="1" relative="1" as="geometry">
                        <mxPoint x="24" y="-7" as="offset"/>
                    </mxGeometry>
                </mxCell>
                <mxCell id="75" style="edgeStyle=orthogonalEdgeStyle;html=1;entryX=0;entryY=0.9;entryDx=0;entryDy=0;entryPerimeter=0;rounded=0;endArrow=none;endFill=0;" parent="1" source="67" target="4" edge="1">
                    <mxGeometry relative="1" as="geometry">
                        <Array as="points">
                            <mxPoint x="317" y="308"/>
                        </Array>
                    </mxGeometry>
                </mxCell>
                <mxCell id="67" value="" style="shape=display;whiteSpace=wrap;html=1;fontFamily=Courier New;fontSize=30;fillColor=default;" parent="1" vertex="1">
                    <mxGeometry x="262" y="303.22" width="20" height="10" as="geometry"/>
                </mxCell>
                <mxCell id="68" value="" style="endArrow=none;html=1;rounded=0;fontFamily=Courier New;fontSize=10;strokeWidth=2;" parent="1" edge="1">
                    <mxGeometry width="50" height="50" relative="1" as="geometry">
                        <mxPoint x="125" y="315" as="sourcePoint"/>
                        <mxPoint x="125" y="300.22" as="targetPoint"/>
                    </mxGeometry>
                </mxCell>
                <mxCell id="69" value="from top level" style="edgeLabel;html=1;align=center;verticalAlign=middle;resizable=0;points=[];fontSize=10;fontFamily=Courier New;" parent="68" vertex="1" connectable="0">
                    <mxGeometry x="-0.219" y="1" relative="1" as="geometry">
                        <mxPoint x="-46" y="-1" as="offset"/>
                    </mxGeometry>
                </mxCell>
            </root>
        </mxGraphModel>
    </diagram>
</mxfile>